<svg version="1.1" viewBox="0.0 0.0 40.0 40.0" fill="none" stroke="none" stroke-linecap="square" stroke-miterlimit="10" xmlns:xlink="http://www.w3.org/1999/xlink" xmlns="http://www.w3.org/2000/svg"><clipPath id="p.0"><path d="m0 0l40.0 0l0 40.0l-40.0 0l0 -40.0z" clip-rule="nonzero"/></clipPath><g clip-path="url(#p.0)"><path fill="#000000" fill-opacity="0.0" d="m0 0l40.0 0l0 40.0l-40.0 0z" fill-rule="evenodd"/><path fill="#bf9000" d="m0 -0.002624672l40.0 0l0 40.0l-40.0 0z" fill-rule="evenodd"/><path fill="#000000" fill-opacity="0.0" d="m7.7261505 -1.1978837l24.547699 0l0 41.4942l-24.547699 0l0 -41.4942z" fill-rule="nonzero"/><path fill="#d9d9d9" d="m24.4449 21.737999l0.9375 -1.765625l0 9.625l-0.9375 0l0 -7.859375zm1.875 -3.59375l0.9375 -1.765625l0 13.21875l-0.9375 0l0 -11.453125zm1.875 -3.546875l0.9375 -1.78125l0 16.78125l-0.9375 0l0 -15.0zm-6.28125 6.703125l-0.53125 -0.984375l6.453125 -12.265625l1.046875 0l-6.96875 13.25zm-1.078125 -2.046875l-0.546875 -1.0l5.40625 -10.203125l1.078125 0l-5.9375 11.203125zm-6.28125 0.8125l0.9375 1.78125l0 7.75l-0.9375 0l0 -9.53125zm-1.875 -3.5625l0.9375 1.765625l0 11.328125l-0.9375 0l0 -13.09375zm-1.875 -3.5625l0.9375 1.78125l0 14.875l-0.9375 0l0 -16.65625zm7.578125 11.03125l-1.046875 0l-7.46875 -14.140625l0 19.765625l-0.9375 0l0 -21.546875l1.0625 0l8.390625 15.921875zm2.125 0l-1.0625 0l-8.390625 -15.921875l1.078125 0l8.375 15.921875zm9.5625 -14.140625l-7.453125 14.140625l-1.0625 0l-8.375 -15.921875l1.0625 0l7.859375 14.9375l7.84375 -14.9375l1.0625 0l0 21.546875l-0.9375 0l0 -19.765625z" fill-rule="nonzero"/><path fill="#010000" fill-opacity="0.0" d="m32.27385 -1.1978837l0 0l0 41.4942l0 0l0 -41.4942z" fill-rule="nonzero"/><path fill="#d9d9d9" d="m7.7261505 31.330708l24.547699 0l0 2.3999977l-24.547699 0l0 -2.3999977z" fill-rule="nonzero"/></g></svg>